                        Happy Hell Night (1992)
                        +++++++++++++++++++++++

Director: Brian Owens
 Writers: Brian Owens, Ron Petersen, Ron Petersen
   Stars: Larry Robinson, Lisa Nichols and Sam Rockwell

Plot:
-----
25 years ago at Winfield College, psycho-priest Zachary Malius murdered seven frat boys and was put away in the local asylum. Now, however, the same fraternity stages a prank from which Malius is inadvertently set free and returns to the house to repeat his crime... 

A/V INFO:
---------
Format                           : AVI
Format/Info                      : Audio Video Interleave
File size                        : 487 MiB
Duration                         : 1h 29mn
Overall bit rate                 : 764 Kbps
Writing application              : MEncoder SVN-r29319-snapshot-4.1.2
Writing library                  : MPlayer
Audio Language                   : ENGLISH
Subtitles                        : NONE

Video
-----
Format                           : MPEG-4 Visual
Format profile                   : Advanced Simple@L5
Format settings, BVOP            : 2
Format settings, QPel            : No
Format settings, GMC             : No warppoints
Format settings, Matrix          : Default (H.263)
Codec ID                         : XVID
Codec ID/Hint                    : XviD
Duration                         : 1h 29mn
Bit rate                         : 665 Kbps
Width                            : 720 pixels
Height                           : 400 pixels
Display aspect ratio             : 16:9
Frame rate                       : 23.976 fps
Color space                      : YUV
Chroma subsampling               : 4:2:0
Bit depth                        : 8 bits
Scan type                        : Progressive
Compression mode                 : Lossy
Bits/(Pixel*Frame)               : 0.096
Stream size                      : 424 MiB (87%)
Writing library                  : XviD 1.3.0.dev55

Audio
-----
Format                           : MPEG Audio
Format version                   : Version 1
Format profile                   : Layer 3
Mode                             : Joint stereo
Mode extension                   : MS Stereo
Codec ID                         : 55
Codec ID/Hint                    : MP3
Duration                         : 1h 29mn
Bit rate mode                    : Variable
Bit rate                         : 86.0 Kbps
Channel(s)                       : 2 channels
Sampling rate                    : 48.0 KHz
Compression mode                 : Lossy
Stream size                      : 54.8 MiB (11%)
Alignment                        : Aligned on interleaves
Interleave, duration             : 24 ms (0.58 video frame)
Interleave, preload duration     : 473 ms
___________________________________________________________________________________

Playback Guide For DVD/CD Player: This file can be played with any DIVX/MP4 compatible DVD/VCD Player. Just burn the avi file onto a CD using Nero or 
Ashampoo Burning Studio by making a DATA CD.

Playback guide for PC: To play this video make sure you have VLC media player 
(VideoLAN) or SMplayer installed on your PC.

Download VLC Media Player: http://www.videolan.org/
Download SMPlayer: http://smplayer.sf.net/

Another Quality Torrent Courtesy of Hyperdrive25. All My torrents are here:
     
http://thepiratebay.org/user/Hyperdrive25
___________________________________________________________________________________

==========================+= HYPERDRIVE25 TORRENT =+==============================
___________________________________________________________________________________


              THE SOLE PURPOSE OF LIFE IS TO KEEP FREE OF BOREDOM!


                              ENJOY THE MOVIE!!! :)		
